<svg xmlns="http://www.w3.org/2000/svg" version="1.1" id="Layer_1" x="0" y="0" xml:space="preserve" width="1067" height="377"><style type="text/css" id="style2">.st1{fill:#10bfbf}</style><g id="g3783" transform="translate(-172 -308)"><g id="g40"><g id="g38"><path id="path4" d="M629.5 461.2l.3-14.9h9.7l2.7 16.2-6.8-2.4v-5c5.3 3.2 9.5 4.9 15.2 4.9 7 0 10.8-2.3 10.8-7.1 0-3.8-2.2-6.3-10.2-8.7l-6.5-1.9c-9.4-2.7-14.7-9-14.7-18.1 0-11.2 9-19.8 25.3-19.8 7.2 0 13 1.7 19.2 4.9l-.8 13.3H664l-3.5-15 6.7 2.9v4.5c-4.3-2.8-7-3.9-12.4-3.9s-9 2.4-9 6.8c0 3.4 1.8 5.7 10.1 8.2l5.9 1.7c11.5 3.4 16.1 9.7 16.1 18.7 0 12.8-10.3 20.2-27.4 20.2-7.8.1-14.6-1.7-21-5.5z" class="st1" fill="#10bfbf"/><path id="path6" d="M691.1 388.7l-7.5-1.2v-5.1l25-5.5 2 1.2-.5 17v24l.4 1.6v18.9c0 7.5.1 20 .4 25.5h-20c.2-5.5.4-17.9.4-25.5v-50.9zm25.2 70.6v5.6h-31.9v-5.6l11.2-2.4h9.2zm30.8-33.9v14.1c0 7.8.1 20 .4 25.5h-20c.2-5.5.4-17.7.4-25.5v-12.7c0-7.9-1.6-10.5-6.5-10.5-4.5 0-9.7 3.8-14.7 9.8h-4.4v-8.7h7.9l-4.7 3.4c8.5-12.3 15.2-16.2 23.9-16.2 10.6-.1 17.7 6.8 17.7 20.8zm-5.7 31.5l11.9 2.4v5.6h-32v-5.6l11-2.4z" class="st1" fill="#10bfbf"/><path id="path8" d="M783 431.2c5-1.5 13.6-3.7 19.3-5.1v5.1c-5.7 1.4-12.3 3.2-15.8 4.8-5.5 2.3-9.1 6.4-9.1 12.1 0 6.1 3.2 8.9 7.3 8.9 2.3 0 4.2-1 8.1-3.8l4.9-3.7 1.3 1.8-5.1 5.5c-5.9 6.2-9.6 10-18.4 10-9.4 0-15.9-5.5-15.9-15.5 0-8.6 4.7-14.7 23.4-20.1zm9.2 23.8v-30.4c0-10.7-2.1-13.9-9.8-13.9-3 0-6.1.4-11.3 1.7l8.3-4.7-.9 8.4c-.3 8.1-4.2 11.3-8.9 11.3-4.3 0-7.2-2.1-8.2-6.1.6-10.1 10.4-16.9 27.9-16.9 15.5 0 21.7 6.6 21.7 22.8v27.2c0 2.4 1 3.5 2.7 3.5 1.3 0 2.3-.7 3.7-2.7l3.2 2.1c-2.9 6.6-7.2 9.2-14.6 9.2-8.2.2-12.7-4.1-13.8-11.5z" class="st1" fill="#10bfbf"/><path id="path10" d="M830.3 439.5v-7.1c0-6.7-.1-9.1-.4-14l-7.4-1.1v-4.8l23.9-8.1 2.1 1.3 1.1 14.9v18.8c0 7.5.1 20 .4 25.5h-20c.2-5.4.3-17.9.3-25.4zm-6.8 19.8l11.6-2.4h12.7l11.6 2.4v5.6h-35.9zm17.2-35.8h9.1l-1.6 3.3c2.1-14.9 10.6-22.3 17.8-22.3 5.3 0 9.5 2.9 10.5 8.9-.3 6.3-3.8 9.9-8.6 9.9-3.7 0-6.5-1.8-9.4-5.6l-3.5-4.6 4.9 1.8c-4.4 3.2-8.7 9.6-10.3 16.8l-8.9-.9z" class="st1" fill="#10bfbf"/><path id="path12" d="M936.4 430.1c0 2.6-.2 4.5-.7 6.5h-47.4v-6.4H911c5.8 0 7.3-2.2 7.3-7.6 0-8-3.8-11.9-8.2-11.9-5 0-9.6 5.5-9.6 23 0 14.8 7.3 21.5 16.4 21.5 6.5 0 11-2.7 14.7-6.5l4.2 3.9c-5 9.5-13.7 14.2-25.4 14.2-17.6 0-30.2-11.5-30.2-31.1 0-20.2 15.6-31.2 31.2-31.2 15.9 0 25 11 25 25.6z" class="st1" fill="#10bfbf"/><path id="path14" d="M976.5 456.3c5.8 0 9.9-4.3 13.7-10.3l1.4 2c-6 13-13.4 18.8-24.1 18.8-13.7 0-24.2-10.8-24.2-30.6 0-19.7 13-31.7 26.7-31.7 10.5 0 15.6 5.8 21.2 16.5l-1.2 2.4c-4.8-5.7-8.2-8.6-13.2-8.6-7.3 0-12.9 6.8-12.9 21.2-.1 13.3 5.1 20.3 12.6 20.3zm32.7 3v5.6l-23.7 1.4-1.6-10.8v-40.2l.7-1.3v-25.3l-8.5-1.2v-5.1l25.6-5.5 2 1.2-.5 17V465l-8.2-8.8z" class="st1" fill="#10bfbf"/><path id="path16" d="M635.6 578c.2-5.5.4-17.9.4-25.5v-7c0-6.7 0-9.2-.4-14l-7.4-1.1v-4.8l23.9-8.1 2.1 1.3 1.1 13.5v20.2c0 7.5.1 20 .4 25.5zm25.6-5.7v5.6h-31.9v-5.6l11.2-2.4h9.2zm30.1-33.9v14.1c0 7.8.1 20 .4 25.5H672c.2-5.5.4-17.7.4-25.5v-11.7c0-8.5-1.7-11.6-7-11.6-5.2 0-10.8 4.3-14.4 8.9h-4.5v-7.8h7.6l-3.6 3.4c7.4-10.9 14.3-16.2 23.5-16.2 11.4 0 17.3 6.9 17.3 20.9zm-5.3 31.5l11.2 2.4v5.6h-31.3v-5.6l10.7-2.4zm41.2-30.9v13.5c0 7.8.1 20 .4 25.5h-19.7c.2-5.5.4-17.7.4-25.5v-11.7c0-9.1-1.9-11.5-6.9-11.5-5.2 0-10.1 3.4-14.7 8.9h-4.3V530h8.6l-5 3.7c8.6-12.6 15.4-16.2 23.6-16.2 12.1 0 17.6 7.1 17.6 21.5zm-5.2 30.9l11.4 2.4v5.6h-31.2v-5.6l10.1-2.4z"/><path id="path18" d="M739.4 548.4c0-18.6 13.4-30.9 30.8-30.9 17.3 0 30.8 12 30.8 30.9s-12 31.4-30.8 31.4c-19 0-30.8-12.7-30.8-31.4zm41 .3c0-17.2-3.5-24.8-10.3-24.8-6.9 0-10.3 7.6-10.3 24.8 0 17.3 3.4 24.8 10.3 24.8 6.8 0 10.3-7.5 10.3-24.8z"/><path id="path20" d="M807.9 572.4l11.3-2.4-5.1 8.1c.2-5.5.4-17.9.4-25.5v-51.2l-7.5-.9v-5.1l25-5.5 2 1.2-.5 17v18.5l.4 1.6v41l-3 10.5-22.9-1.6v-5.7zm46.4-23.9c0-14.3-4.9-20.5-12.1-20.5-6.4 0-11.8 6.7-15.7 10.8l-1.1-2c6.9-13 15-19.3 25.7-19.3 13.2 0 23.7 10.5 23.7 30.7 0 19.5-12.2 31.6-25.9 31.6-10.9 0-17.3-6.2-22.6-18.7l1.1-2.3c5 6.7 8.7 10.7 14.7 10.7 7.1.1 12.2-6.7 12.2-21z"/><path id="path22" d="M888.3 578c.2-5.5.4-17.9.4-25.5v-5.8c0-6.7-.1-10.4-.4-15.3l-7.5-1.1v-4.8l25.4-8.1 2.1 1.3-.4 17.6v16.1c0 7.5.1 20 .4 25.5h-20zm25.8-5.7v5.6H882v-5.6l11.2-2.4h9.2zm-26.3-73.4c0-5.7 4.6-9.6 10.3-9.6 5.7 0 10.3 4 10.3 9.6s-4.6 9.6-10.3 9.6c-5.7 0-10.3-4-10.3-9.6z"/><path id="path24" d="M944.7 489.9l2 1.2-.5 17v44.4c0 8.5.1 17 .4 25.5h-20c.2-8.5.4-17 .4-25.5v-50.8l-7.5-1.2v-5.1zm8.3 82.4v5.6h-33.1v-5.6l11.6-2.4h9.2z"/><path id="path26" d="M965.9 578c.2-5.5.4-17.9.4-25.5v-5.8c0-6.7-.1-10.4-.4-15.3l-7.5-1.1v-4.8l25.4-8.1 2.1 1.3-.4 17.6v16.1c0 7.5.1 20 .4 25.5h-20zm25.8-5.7v5.6h-32.2v-5.6l11.2-2.4h9.2zm-26.3-73.4c0-5.7 4.6-9.6 10.3-9.6 5.7 0 10.3 4 10.3 9.6s-4.6 9.6-10.3 9.6c-5.7 0-10.3-4-10.3-9.6z"/><path id="path28" d="M1028.9 569.9c2.2 0 4.2-.9 6.6-2.7l3 2.9c-3.2 6.2-8.9 9.7-17.7 9.7-11 0-17.4-4.9-17.4-16.8 0-4.2.1-7.5.1-12.2v-23.1h-7.8v-7.2l14.3-1.9-6.9 4.9 7.7-21.1h12.4l-.3 21.8v37.4c-.1 5.7 2.4 8.3 6 8.3zm6.6-50.5v8.3h-22.3v-8.3z"/><path id="path30" d="M1048.4 526.6l-11-1.9v-5.3h34.5v5.2l-10.9 2zm-10.6 71c1-5.3 5.2-7.8 10-7.8 3.2 0 7.2.9 10.4 5.6l3.8 5.5-4.6 2.1-3.7-2.1c5.8-3.5 10.7-10.1 13.6-18.2l6.4-18.3 15.9-45h7.9L1073 583c-6 15.5-11.4 23.8-22.7 23.8-6.5-.1-12.1-4.1-12.5-9.2zm30.8-12l-28.1-66.2h20.9l16.2 45zm20.7-59.1l-10.1-1.8v-5.3h22.9v5.3l-10.4 1.8z"/><path id="path32" d="M1109.7 569c0-6 4.8-11.1 10.9-11.1 6.1 0 10.9 5 10.9 11.1 0 5.9-4.8 10.8-10.9 10.8-6.1 0-10.9-4.8-10.9-10.8z"/><path id="path34" d="M1166 544.2c5-1.5 13.6-3.7 19.3-5.1v5.1c-5.7 1.4-12.3 3.2-15.8 4.8-5.5 2.3-9.1 6.4-9.1 12.1 0 6.1 3.2 8.9 7.3 8.9 2.3 0 4.2-1 8.1-3.8l4.9-3.7 1.3 1.8-5.1 5.5c-5.9 6.2-9.6 10-18.4 10-9.4 0-15.9-5.5-15.9-15.5 0-8.6 4.7-14.7 23.4-20.1zm9.2 23.8v-30.4c0-10.7-2.1-13.9-9.8-13.9-3 0-6.1.4-11.3 1.7l8.3-4.7-.9 8.4c-.3 8.1-4.2 11.3-8.9 11.3-4.3 0-7.2-2.1-8.2-6.1.6-10.1 10.4-16.9 27.9-16.9 15.5 0 21.7 6.6 21.7 22.8v27.2c0 2.4 1 3.5 2.7 3.5 1.3 0 2.3-.7 3.7-2.7l3.2 2.1c-2.9 6.6-7.2 9.2-14.6 9.2-8.2.2-12.7-4.1-13.8-11.5z"/><path id="path36" d="M1213.2 578c.2-5.5.4-17.9.4-25.5v-5.8c0-6.7-.1-10.4-.4-15.3l-7.5-1.1v-4.8l25.4-8.1 2.1 1.3-.4 17.6v16.1c0 7.5.1 20 .4 25.5h-20zm25.8-5.7v5.6h-32.2v-5.6l11.2-2.4h9.2zm-26.3-73.4c0-5.7 4.6-9.6 10.3-9.6 5.7 0 10.3 4 10.3 9.6s-4.6 9.6-10.3 9.6c-5.7 0-10.3-4-10.3-9.6z"/></g></g><path id="path42" d="M337.6 355.6l136.6 264.9S574.6 514 526.6 428c-53.1-95.2-189-72.4-189-72.4z" class="st1" fill="#10bfbf"/><path id="path44" d="M387.2 684.7L251.3 401.8s-83.8 82.4-35.9 168.3c53.2 95.3 171.8 114.6 171.8 114.6z" class="st1" fill="#10bfbf"/><path id="path46" d="M193 502.6c0 48.7 19 94.6 53.4 129 34.5 34.5 80.3 53.4 129 53.4 26.6 0 52.3-5.7 75.8-16.4l-17.8-36.7c-17.7 8-37.4 12.4-58.1 12.4-78.2 0-141.8-63.6-141.8-141.8 0-19.9 4.1-38.9 11.6-56.1l-21.8-45C203.7 431.1 193 466 193 502.6z"/><path id="path48" d="M293.9 386.1c22.7-16.6 50.2-25.3 81.6-25.3 78.2 0 141.8 63.6 141.8 141.8 0 42.8-13 75.4-43.1 101.4l18.6 38.6c6.4-4.9 6-5.3 11.7-11 34.5-34.5 53.4-80.3 53.4-129s-19-94.6-53.4-129c-34.5-34.5-80.3-53.4-129-53.4-36.9 0-69.3 8.8-98 28.2"/><path id="polygon50" d="M213.7 410.4l20.1 41.4 70.1 144.8 33.7-16.3-80-165.1-17.3-35.6-34.6-71.6-33.7 16.3z"/><path id="polygon52" d="M374.8 430.6L467 606.8l16.5 31.4 24.3 46.5 34-15.2-25.8-49.3-17-32.3-90.2-172.5z"/></g></svg>