<svg version="1.1" id="Ebene_1" xmlns="http://www.w3.org/2000/svg" x="0" y="0" width="200" height="50" xml:space="preserve"><style>.st15{fill:#3c3c3b}.st16{fill:#323234}</style><linearGradient id="SVGID_1_" gradientUnits="userSpaceOnUse" x1="40.107" y1="49.083" x2="33.228" y2="8.432"><stop offset="0" stop-color="#8ac279"/><stop offset=".276" stop-color="#88c27c"/><stop offset=".468" stop-color="#83c185"/><stop offset=".634" stop-color="#7ac094"/><stop offset=".786" stop-color="#6ebeaa"/><stop offset=".926" stop-color="#5dbcc6"/><stop offset="1" stop-color="#53bad8"/></linearGradient><path d="M44.3 36.9c-1.4 0-2.5 1-2.6 2.4V40.9c0 1.4-1.2 2.6-2.6 2.6s-2.6-1.2-2.6-2.6V23.5c0-3.5-1.4-6.8-3.8-9.2-1.7-1.7-3.9-2.9-6.3-3.5-.2.7-.3 1.5-.3 2.3v3.1c3 1.1 5.2 4 5.2 7.4V41c0 4.3 3.5 7.8 7.8 7.8s7.8-3.5 7.8-7.8v-1.4c-.1-1.6-1.2-2.7-2.6-2.7z" fill="url(#SVGID_1_)"/><linearGradient id="SVGID_2_" gradientUnits="userSpaceOnUse" x1="455.341" y1="98.854" x2="455.341" y2="53.788" gradientTransform="rotate(180 246.758 48.916)"><stop offset="0" stop-color="#693388"/><stop offset="1" stop-color="#3fb8ea"/></linearGradient><path d="M43.1 3.8C40.7 1.4 37.3 0 33.9 0c-1.5 0-3 .3-4.4.8 4 1 7.6 3.1 10.6 6.1 4.1 4.1 6.5 9.5 6.8 15.3V13c0-3.4-1.4-6.7-3.8-9.2z" fill="url(#SVGID_2_)"/><linearGradient id="SVGID_3_" gradientUnits="userSpaceOnUse" x1="-3.836" y1="2403.388" x2="-3.836" y2="2427.288" gradientTransform="matrix(1 0 0 -1 35.296 2437.362)"><stop offset="0" stop-color="#8bc270" stop-opacity="0"/><stop offset="1" stop-color="#4f5c96"/></linearGradient><path d="M26.4 10.8c2.4.6 4.5 1.7 6.3 3.5 2.4 2.4 3.8 5.8 3.8 9.2v7.8c0 .9-.5 1.8-1.3 2.2h-2.7c-.8-.5-1.3-1.3-1.3-2.2v-13c.1-3.4-1.8-6.4-4.8-7.5z" opacity=".6" fill="url(#SVGID_3_)"/><linearGradient id="SVGID_4_" gradientUnits="userSpaceOnUse" x1="153.683" y1="-6.75" x2="138.865" y2="66.105" gradientTransform="translate(-133.27)"><stop offset=".054" stop-color="#53bad8"/><stop offset=".738" stop-color="#d0d037"/></linearGradient><path d="M23.5 26.2c-1.4 0-2.6-1.2-2.6-2.6v13.1c0 4.3-3.5 7.8-7.8 7.8S5.3 41 5.3 36.7V23.5c0-4.8 1.9-9.5 5.3-12.9 3.4-3.4 8.1-5.3 12.9-5.3.4-.5.8-1 1.2-1.4 1.4-1.4 3-2.4 4.8-3-1.9-.5-3.9-.8-6-.8C17.2 0 11.3 2.5 6.9 6.9 2.5 11.3 0 17.2 0 23.5v13.2c0 3.5 1.4 6.8 3.8 9.2 2.4 2.4 5.8 3.8 9.2 3.8 3.5 0 6.8-1.4 9.2-3.8 2.4-2.4 3.8-5.8 3.8-9.2V23.6c.1 1.4-1.1 2.6-2.5 2.6z" fill="url(#SVGID_4_)"/><linearGradient id="SVGID_5_" gradientUnits="userSpaceOnUse" x1="154.149" y1="-6.655" x2="139.331" y2="66.199" gradientTransform="translate(-133.27)"><stop offset="0" stop-color="#3fb8ea"/><stop offset="1" stop-color="#c2d117"/></linearGradient><path d="M10.4 23.5v13.1c0 1.4 1.2 2.6 2.6 2.6 1.4 0 2.6-1.2 2.6-2.6V23.5c0-3.4 2.2-6.3 5.2-7.4V13c0-.8.1-1.6.2-2.4-2.6.5-5 1.7-6.8 3.6-2.4 2.5-3.8 5.8-3.8 9.3z" fill="url(#SVGID_5_)"/><linearGradient id="SVGID_6_" gradientUnits="userSpaceOnUse" x1="33.827" y1="4.536" x2="41.734" y2="22.293"><stop offset="0" stop-color="#bfe2e8"/><stop offset="1" stop-color="#c5e3dc"/></linearGradient><path d="M41.7 13c0-4.3-3.5-7.8-7.8-7.8-1.5 0-2.9.4-4.1 1.1 2.4.9 4.7 2.3 6.5 4.2 3.1 3.1 5 7.4 5.3 11.8" fill="url(#SVGID_6_)"/><linearGradient id="SVGID_7_" gradientUnits="userSpaceOnUse" x1="23.456" y1="15.672" x2="23.456" y2="30.432"><stop offset="0" stop-color="#5b6aaf"/><stop offset=".747" stop-color="#7bc08c"/><stop offset="1" stop-color="#7bc08c" stop-opacity="0"/></linearGradient><path d="M23.5 15.6c-.9 0-1.8.2-2.6.4v14.4h5.2V16c-.9-.2-1.7-.4-2.6-.4z" fill="url(#SVGID_7_)"/><linearGradient id="SVGID_8_" gradientUnits="userSpaceOnUse" x1="10.652" y1="4.912" x2="10.652" y2="36.743"><stop offset="0" stop-color="#5b6aaf"/><stop offset="1" stop-color="#8bc270" stop-opacity="0"/></linearGradient><path d="M6.9 12.1C2.5 16.5 0 22.4 0 28.7v6.9h5.2V23.4c0-4.8 1.9-9.5 5.3-12.9 2.9-2.9 6.7-4.7 10.7-5.2-5.3.6-10.4 2.9-14.3 6.8z" fill="url(#SVGID_8_)"/><linearGradient id="SVGID_9_" gradientUnits="userSpaceOnUse" x1="10.425" y1="38.165" x2="26.062" y2="38.165"><stop offset="0" stop-color="#8ac279"/><stop offset="1" stop-color="#7bbf8a"/></linearGradient><path d="M20.8 26.6V37c-.1 3.3-1.4 6.5-3.8 8.9-1.8 1.8-4.1 3-6.6 3.6.9.2 1.7.3 2.6.3 3.5 0 6.8-1.4 9.2-3.8 2.4-2.4 3.8-5.8 3.8-9.2V26.6h-5.2z" fill="url(#SVGID_9_)"/><linearGradient id="SVGID_10_" gradientUnits="userSpaceOnUse" x1="468.077" y1="98.854" x2="468.077" y2="53.788" gradientTransform="rotate(180 246.758 48.916)"><stop offset="0" stop-color="#693388"/><stop offset="1" stop-color="#3fb8ea"/></linearGradient><path d="M23.5 10.4c1 0 2 .1 2.9.3.6-1.9 1.8-3.4 3.4-4.4-2-.7-4.2-1.1-6.3-1.1-1.2 1.6-2 3.5-2.4 5.4.8-.1 1.6-.2 2.4-.2z" fill="url(#SVGID_10_)"/><path d="M26.4 10.8c-1-.2-1.9-.3-2.9-.3-.8 0-1.6.1-2.4.2-.1.8-.2 1.6-.2 2.4v3.1c.8-.3 1.7-.4 2.6-.4.9 0 1.8.2 2.6.4V13c0-.8.1-1.5.3-2.2z" fill="#244876"/><path d="M44.3 24.4c1.3 0 2.4-1 2.6-2.2-.3-5.8-2.8-11.2-6.9-15.3-3-3-6.6-5-10.6-6.1-1.8.6-3.4 1.7-4.8 3-.4.4-.8.9-1.2 1.4 2.2 0 4.3.4 6.3 1.1 1.2-.7 2.6-1.1 4.1-1.1 4.3 0 7.8 3.5 7.8 7.8v9.3c.4 1.2 1.4 2.1 2.7 2.1z" fill="#253777"/><linearGradient id="SVGID_11_" gradientUnits="userSpaceOnUse" x1="44.306" y1="8.103" x2="44.306" y2="24.989"><stop offset=".104" stop-color="#233573"/><stop offset="1" stop-color="#1e768d"/></linearGradient><path d="M46.8 21.6c-.4-4.7-2.2-9.2-5.1-12.9V22.3c.3 1.2 1.3 2.1 2.6 2.1s2.4-1 2.6-2.2c0-.2 0-.4-.1-.6z" fill="url(#SVGID_11_)"/><linearGradient id="SVGID_12_" gradientUnits="userSpaceOnUse" x1="43.969" y1="20.872" x2="44.398" y2="33.331"><stop offset=".389" stop-color="#8ac279"/><stop offset=".895" stop-color="#ffd600"/></linearGradient><circle cx="44.3" cy="30.6" r="2.6" fill="url(#SVGID_12_)"/><linearGradient id="SVGID_13_" gradientUnits="userSpaceOnUse" x1="41.727" y1="22.481" x2="41.727" y2="-.235"><stop offset="0" stop-color="#4e64a7"/><stop offset="1" stop-color="#2e2254"/></linearGradient><path d="M46.9 13c0-3.5-1.4-6.8-3.8-9.2C41.3 2 39 .8 36.5.3c3 1.1 5.2 4.1 5.2 7.5v.9c3 3.7 4.8 8.7 5.2 13.4.1-.2 0-1 0-1.3V13z" fill="url(#SVGID_13_)"/><path class="st15" d="M75 33.1c-1.7 0-2.5-.8-2.5-2.6v-11c0-5-1.8-6.9-6.1-6.9-3.6 0-5.6 2-5.6 6.9v13.6h-1.5c-1.5 0-2.5-.9-2.5-2.8v-11c0-6.7 4-10.6 10.1-10.6 6 0 9.6 3.4 9.6 10.6v13.8H75zM90.3 23h-5.9c.4 4 3.2 6.8 7.6 6.8 3.7 0 5.9-1.2 7.2-2.5h.2v1.8c0 2.5-2.7 4.4-8 4.4-6.6 0-11.2-5.1-11.2-11.9 0-7.7 4.8-12.9 11.2-12.9 4.6 0 9 3.5 9 8.3 0 4.2-1.9 6-10.1 6zm.7-10.6c-3.9 0-6.4 3.3-6.6 6.4v1l5.4-.1c5.8-.1 6.8-.6 6.8-2.4-.1-2.6-1.9-4.9-5.6-4.9zM108.7 9.2h8.2v1.3c0 1.5-1 2.5-3.1 2.5h-5.1v11.8c0 3.4 1.3 4.8 3.9 4.8 1.5 0 2.9-.1 3.8-.7h.2v1.4c0 2-1.6 3.1-4.3 3.1-5.3 0-7.6-2.8-7.6-8.3V9.7c0-1.4.4-2.7 1-3.7.6-.8 1.9-1.7 2.5-1.7h.5v4.9zM122.2 5.9c-1.5 0-2.8-1.3-2.8-2.8 0-1.5 1.3-2.8 2.8-2.8 1.5 0 2.7 1.3 2.7 2.8 0 1.5-1.2 2.8-2.7 2.8zm5 27.4c-4.7 0-7.2-2.3-7.2-7.1v-17h1.3c1.4 0 2.8 1.1 2.8 3.2v13.3c0 3 1.5 3.9 3.7 3.9h1.7v1.3c0 1.5-.9 2.4-2.3 2.4zM141.8 33.5c-5.9 0-11-5.4-11-12.1 0-8.2 3.8-12.7 10.5-12.7 2.9 0 5.5 1.3 7.2 4.6V.9h1.1c2 0 3 1.1 3 3.3v16.2c.1 9.2-3.3 13.1-10.8 13.1zm-.3-21c-4.2 0-6.5 3.2-6.5 8.6 0 4.8 3 8.6 7.2 8.6 4.3 0 6.3-2.3 6.3-8.2 0-4.3-1.3-9-7-9zM166.5 23h-5.9c.4 4 3.2 6.8 7.6 6.8 3.7 0 5.9-1.2 7.2-2.5h.2v1.8c0 2.5-2.7 4.4-8 4.4-6.6 0-11.2-5.1-11.2-11.9 0-7.7 4.8-12.9 11.2-12.9 4.6 0 9 3.5 9 8.3.1 4.2-1.9 6-10.1 6zm.7-10.6c-3.9 0-6.4 3.3-6.6 6.4v1l5.4-.1c5.8-.1 6.8-.6 6.8-2.4-.1-2.6-1.9-4.9-5.6-4.9zM189.9 23H184c.4 4 3.2 6.8 7.6 6.8 3.7 0 5.9-1.2 7.2-2.5h.2v1.8c0 2.5-2.7 4.4-8 4.4-6.6 0-11.2-5.1-11.2-11.9 0-7.7 4.8-12.9 11.2-12.9 4.6 0 9 3.5 9 8.3 0 4.2-2 6-10.1 6zm.6-10.6c-3.9 0-6.4 3.3-6.6 6.4v1l5.4-.1c5.8-.1 6.8-.6 6.8-2.4 0-2.6-1.8-4.9-5.6-4.9z"/><path class="st16" d="M116.5 39.4v3.9h3v.5h-3v2.8h-.5v-7.7h4.4v.5h-3.9zM125.8 46.7h-.1c-1 0-1.9-.5-2.6-1.2-.7-.8-1.1-1.8-1.1-2.8 0-1.1.4-2.1 1.1-2.8.7-.7 1.6-1.1 2.6-1.2h.1c1 0 1.9.5 2.6 1.2.7.8 1.1 1.8 1.1 2.8 0 1.1-.4 2.1-1.1 2.8-.7.7-1.6 1.2-2.6 1.2zm-.1-7.5c-1.8 0-3.3 1.6-3.3 3.5s1.5 3.5 3.3 3.5c1.8 0 3.3-1.6 3.3-3.5s-1.4-3.5-3.3-3.5zm-1.1-1.6h.6V37h-.6v.6zm1.7 0h.6V37h-.6v.6zM134.9 43.8l1.6 2.8h-.5l-1.6-2.7c-.7.1-1.5-.1-1.9-.2v2.9h-.5v-7.5l.2-.1c.1 0 2.5-.8 3.8.2.6.4.9 1.1.9 2.1s-.3 1.6-.9 2.1c-.3.2-.7.3-1.1.4zm.8-.9c.5-.3.7-.9.7-1.6s-.2-1.3-.7-1.6c-1-.7-2.6-.4-3.2-.2v3.7c.5.1 2.2.5 3.2-.3zM144.4 45.4c-.7.7-1.7 1.1-2.7 1.1h-2.3v-7.7h2.3c1 0 2 .4 2.7 1.1.7.7 1.1 1.7 1.1 2.7 0 1.1-.4 2.1-1.1 2.8zm.6-2.7c0-1.8-1.5-3.4-3.4-3.4h-1.8V46h1.8c1.9.1 3.4-1.4 3.4-3.3zM152.5 46.1v.5H148v-7.7h4.4v.5h-3.9v3.9h3v.5h-3v2.3h4zM157.9 43.8l1.6 2.8h-.5l-1.6-2.7c-.7.1-1.5-.1-1.9-.2v2.9h-.5v-7.5l.2-.1c.1 0 2.5-.8 3.8.2.6.4.9 1.1.9 2.1s-.3 1.6-.9 2.1c-.4.2-.7.3-1.1.4zm.8-.9c.5-.3.7-.9.7-1.6s-.2-1.3-.7-1.6c-1-.7-2.6-.4-3.2-.2v3.7c.5.1 2.2.5 3.2-.3zM164.6 46.7c-1.4 0-2.5-1.1-2.5-2.5v-5.3h.5v5.3c0 1.1.9 2 2 2s2-.9 2-2v-5.3h.5v5.3c0 1.3-1.1 2.5-2.5 2.5zM175.1 38.9v7.7h-.4l-4.7-6.7v6.7h-.5v-7.7h.4l4.6 6.6v-6.6h.6zM183.9 45.4l-.1.2c-.1.1-.2.2-.4.3-.6.5-1.4.8-2.2.8h-.1-.1c-1 0-1.9-.5-2.6-1.2-.7-.7-1.1-1.7-1.1-2.8s.4-2.1 1.1-2.8c.7-.7 1.6-1.1 2.6-1.2h.1c1 0 1.9.5 2.6 1.2l.1.1-.4.3c-.6-.6-1.4-1-2.3-1.1-1.8 0-3.3 1.6-3.3 3.5s1.5 3.4 3.3 3.5c.9 0 1.7-.4 2.3-1v-1.4h-2.5v-.5h3v2.1zM190.9 46.1v.5h-4.5v-7.7h4.4v.5h-3.9v3.9h3v.5h-3v2.3h4zM198.9 38.9v7.7h-.4l-4.7-6.7v6.7h-.5v-7.7h.4l4.6 6.6v-6.6h.6z"/></svg>